<svg _ngcontent-Tifos_App-c122="" width="20" height="20" viewBox="0 0 20 20" fill="none" xmlns="http://www.w3.org/2000/svg" class="ng-star-inserted" style=""><path _ngcontent-Tifos_App-c122="" d="M11.1048 10.0005L19.7711 1.33421C20.0762 1.02909 20.0762 0.534403 19.7711 0.229326C19.4659 -0.0757518 18.9713 -0.0757909 18.6662 0.229326L9.99987 8.89564L1.3336 0.229326C1.02848 -0.0757909 0.533793 -0.0757909 0.228715 0.229326C-0.0763622 0.534442 -0.0764012 1.02913 0.228715 1.33421L8.89499 10.0005L0.228715 18.6668C-0.0764012 18.9719 -0.0764012 19.4666 0.228715 19.7717C0.381254 19.9242 0.581215 20.0005 0.781175 20.0005C0.981136 20.0005 1.18106 19.9242 1.33364 19.7717L9.99987 11.1054L18.6661 19.7717C18.8187 19.9242 19.0186 20.0005 19.2186 20.0005C19.4186 20.0005 19.6185 19.9242 19.7711 19.7717C20.0762 19.4666 20.0762 18.9719 19.7711 18.6668L11.1048 10.0005Z" fill="#9B9898"></path></svg>