<svg width="40" height="40" viewBox="0 0 40 40" fill="none" xmlns="http://www.w3.org/2000/svg">
<g clip-path="url(#clip0_21_276)">
<path d="M36.119 4.306C32.4 0.489 26.264 -0.0850009 20.009 2.177C13.753 -0.0850009 7.61804 0.489 3.89904 4.306C0.27304 8.028 -0.21096 13.966 2.01304 20.003C-0.21196 26.039 0.27304 31.978 3.89904 35.699C7.61804 39.516 13.754 40.09 20.009 37.828C26.265 40.09 32.4 39.516 36.119 35.699C39.745 31.977 40.229 26.039 38.005 20.002C40.229 13.966 39.745 8.028 36.119 4.306ZM35.579 4.833C37.852 7.166 37.858 11.243 36.028 15.819C34.655 13.449 32.872 11.141 30.703 9.028C28.705 7.081 26.55 5.466 24.343 4.199C29.074 2.384 33.262 2.455 35.579 4.833ZM33.918 20.003C32.321 22.64 30.2 25.318 27.628 27.823C25.172 30.216 22.57 32.193 20.008 33.698C17.446 32.194 14.845 30.217 12.388 27.823C9.81604 25.317 7.69604 22.64 6.09804 20.003C7.69504 17.366 9.81604 14.688 12.388 12.183C14.844 9.79 17.446 7.813 20.008 6.308C22.57 7.812 25.171 9.789 27.628 12.183C30.2 14.688 32.321 17.366 33.918 20.003ZM4.43904 4.833C6.75604 2.455 10.944 2.385 15.676 4.199C13.469 5.466 11.314 7.081 9.31604 9.028C7.14704 11.141 5.36404 13.449 3.99104 15.819C2.16004 11.243 2.16604 7.166 4.43904 4.833ZM4.43904 35.173C2.16604 32.84 2.16004 28.763 3.99004 24.187C5.36304 26.557 7.14604 28.865 9.31504 30.978C11.313 32.925 13.468 34.54 15.675 35.807C10.944 37.622 6.75604 37.551 4.43904 35.173ZM35.579 35.173C33.262 37.551 29.074 37.621 24.342 35.807C26.549 34.54 28.704 32.925 30.702 30.978C32.871 28.865 34.654 26.557 36.027 24.187C37.857 28.763 37.852 32.84 35.579 35.173Z" fill="url(#paint0_linear_21_276)"/>
<path d="M25.4911 12.8811H20.0091H14.5271C12.8801 14.1171 10.7451 17.3021 10.7451 17.3021H14.3851H16.5531H17.7771H17.7991V29.5431C18.6291 30.3331 20.0091 31.2621 20.0091 31.2621C20.0091 31.2621 21.5561 30.2711 22.2191 29.5371V17.3011H23.4651H26.9321H29.2731C29.2731 17.3011 27.1381 14.1161 25.4911 12.8811Z" fill="url(#paint1_linear_21_276)"/>
</g>
<defs>
<linearGradient id="paint0_linear_21_276" x1="5.50574" y1="25.2699" x2="53.3909" y2="29.9551" gradientUnits="userSpaceOnUse">
<stop stop-color="#DD3000"/>
<stop offset="1" stop-color="#FEC454"/>
</linearGradient>
<linearGradient id="paint1_linear_21_276" x1="13.0611" y1="24.599" x2="36.0022" y2="26.8401" gradientUnits="userSpaceOnUse">
<stop stop-color="#DD3000"/>
<stop offset="1" stop-color="#FEC454"/>
</linearGradient>
<clipPath id="clip0_21_276">
<rect width="40" height="40" fill="white"/>
</clipPath>
</defs>
</svg>
